<svg id="visual" viewBox="0 0 960 540" width="960" height="540" xmlns="http://www.w3.org/2000/svg" xmlns:xlink="http://www.w3.org/1999/xlink" version="1.1">
<path d="M0 382L22.8 387.2C45.7 392.3 91.3 402.7 137 389.5C182.7 376.3 228.3 339.7 274 322.8C319.7 306 365.3 309 411.2 328.3C457 347.7 503 383.3 548.8 392.2C594.7 401 640.3 383 686 369.2C731.7 355.3 777.3 345.7 823 352C868.7 358.3 914.3 380.7 937.2 391.8L960 403L960 541L937.2 541C914.3 541 868.7 541 823 541C777.3 541 731.7 541 686 541C640.3 541 594.7 541 548.8 541C503 541 457 541 411.2 541C365.3 541 319.7 541 274 541C228.3 541 182.7 541 137 541C91.3 541 45.7 541 22.8 541L0 541Z" fill="#fac600"></path>
<path d="M0 445L22.8 433.8C45.7 422.7 91.3 400.3 137 385C182.7 369.7 228.3 361.3 274 358.2C319.7 355 365.3 357 411.2 366.2C457 375.3 503 391.7 548.8 403C594.7 414.3 640.3 420.7 686 413.5C731.7 406.3 777.3 385.7 823 387.8C868.7 390 914.3 415 937.2 427.5L960 440L960 541L937.2 541C914.3 541 868.7 541 823 541C777.3 541 731.7 541 686 541C640.3 541 594.7 541 548.8 541C503 541 457 541 411.2 541C365.3 541 319.7 541 274 541C228.3 541 182.7 541 137 541C91.3 541 45.7 541 22.8 541L0 541Z" fill="#fdb800"></path>
<path d="M0 454L22.8 448.5C45.7 443 91.3 432 137 428.5C182.7 425 228.3 429 274 432.2C319.7 435.3 365.3 437.7 411.2 433.8C457 430 503 420 548.8 418C594.7 416 640.3 422 686 422C731.7 422 777.3 416 823 407.8C868.7 399.7 914.3 389.3 937.2 384.2L960 379L960 541L937.2 541C914.3 541 868.7 541 823 541C777.3 541 731.7 541 686 541C640.3 541 594.7 541 548.8 541C503 541 457 541 411.2 541C365.3 541 319.7 541 274 541C228.3 541 182.7 541 137 541C91.3 541 45.7 541 22.8 541L0 541Z" fill="#feaa00"></path>
<path d="M0 421L22.8 433.2C45.7 445.3 91.3 469.7 137 476.5C182.7 483.3 228.3 472.7 274 463.2C319.7 453.7 365.3 445.3 411.2 451.2C457 457 503 477 548.8 479.8C594.7 482.7 640.3 468.3 686 465.5C731.7 462.7 777.3 471.3 823 468.5C868.7 465.7 914.3 451.3 937.2 444.2L960 437L960 541L937.2 541C914.3 541 868.7 541 823 541C777.3 541 731.7 541 686 541C640.3 541 594.7 541 548.8 541C503 541 457 541 411.2 541C365.3 541 319.7 541 274 541C228.3 541 182.7 541 137 541C91.3 541 45.7 541 22.8 541L0 541Z" fill="#ff9c00"></path>
<path d="M0 502L22.8 505.2C45.7 508.3 91.3 514.7 137 516C182.7 517.3 228.3 513.7 274 504.2C319.7 494.7 365.3 479.3 411.2 478.8C457 478.3 503 492.7 548.8 500.2C594.7 507.7 640.3 508.3 686 510.3C731.7 512.3 777.3 515.7 823 515.7C868.7 515.7 914.3 512.3 937.2 510.7L960 509L960 541L937.2 541C914.3 541 868.7 541 823 541C777.3 541 731.7 541 686 541C640.3 541 594.7 541 548.8 541C503 541 457 541 411.2 541C365.3 541 319.7 541 274 541C228.3 541 182.7 541 137 541C91.3 541 45.7 541 22.8 541L0 541Z" fill="#ff8d00"></path></svg>